<svg width="90" height="90" viewBox="0 0 90 90" fill="none" xmlns="http://www.w3.org/2000/svg">
<circle cx="45" cy="45" r="45" fill="#33078A"/>
<path d="M46 43L38.5 50.5M61.72 25.5775C61.9572 25.4956 62.2127 25.4822 62.4572 25.5386C62.7018 25.5951 62.9255 25.7192 63.1028 25.8968C63.2801 26.0744 63.4039 26.2982 63.46 26.5428C63.5161 26.7874 63.5022 27.0429 63.42 27.28L48.61 69.605C48.5214 69.858 48.3588 70.0785 48.1433 70.238C47.9278 70.3975 47.6694 70.4885 47.4015 70.4993C47.1336 70.51 46.8687 70.4401 46.6411 70.2985C46.4135 70.1568 46.2337 69.9501 46.125 69.705L38.0775 51.6C37.9421 51.2989 37.7011 51.0579 37.4 50.9225L19.295 42.8725C19.0508 42.7634 18.8448 42.5836 18.7038 42.3563C18.5628 42.129 18.4931 41.8647 18.5039 41.5974C18.5147 41.3301 18.6053 41.0722 18.7642 40.8569C18.923 40.6417 19.1428 40.4791 19.395 40.39L61.72 25.5775Z" stroke="#FEFEFF" stroke-width="1.5" stroke-linecap="round" stroke-linejoin="round"/>
</svg>
